<svg width="142" height="35" viewBox="0 0 142 35" fill="none" xmlns="http://www.w3.org/2000/svg">
<g clip-path="url(#clip0_1_16)">
<path d="M10.7468 23.1829L4.54252 32.3934C2.24815 35.8013 0.0059967 35.1197 0.0059967 31.0088V6.08205C0.101196 6.96184 0.410196 7.80503 0.90598 8.53819L10.7468 23.1829Z" fill="url(#paint0_linear_1_16)"/>
<path d="M21.5029 7.22105L10.7683 23.186L0.9397 8.55965C0.384051 7.73307 0.0622145 6.77176 0.0081492 5.77736C-0.045916 4.78297 0.1698 3.79247 0.632558 2.91054C1.10044 2.03101 1.79903 1.29541 2.65343 0.782652C3.50782 0.269898 4.48579 -0.000666053 5.48235 3.612e-06H13.7077C14.6088 -0.00102902 15.4963 0.219368 16.2922 0.641771C17.0881 1.06418 17.7678 1.67564 18.2717 2.42238L21.5029 7.22105Z" fill="url(#paint1_linear_1_16)"/>
<path d="M32.2162 23.1829L28.8774 28.1505C22.9465 36.9649 20.0164 36.9649 14.0885 28.1505L10.7468 23.1829L21.4968 7.21798L32.2162 23.1829Z" fill="url(#paint2_linear_1_16)"/>
<path d="M32.2162 23.1829L38.4205 32.3934C40.7149 35.8013 42.957 35.1197 42.957 31.0088V6.08205C42.863 6.96218 42.554 7.80571 42.0571 8.53819L32.2162 23.1829Z" fill="url(#paint3_linear_1_16)"/>
<path d="M21.4815 7.22105L32.2162 23.186L42.0448 8.55965C42.6004 7.73307 42.9223 6.77176 42.9763 5.77736C43.0304 4.78297 42.8145 3.79247 42.3519 2.91054C41.8838 2.03101 41.1854 1.29541 40.3309 0.782652C39.4765 0.269898 38.4985 -0.000666053 37.5021 3.612e-06H29.2767C28.3756 -0.00102902 27.4881 0.219368 26.6922 0.641771C25.8963 1.06418 25.2165 1.67564 24.7126 2.42238L21.4815 7.22105Z" fill="url(#paint4_linear_1_16)"/>
</g>
<path d="M65.174 26.34C65.174 26.4133 65.2253 26.472 65.328 26.516C65.4453 26.56 65.5627 26.582 65.68 26.582V27H61.83V26.582C61.9473 26.582 62.0573 26.56 62.16 26.516C62.2773 26.472 62.336 26.4133 62.336 26.34V13.734L55.89 27.836L49.466 13.69V26.34C49.466 26.4133 49.5173 26.472 49.62 26.516C49.7373 26.56 49.8547 26.582 49.972 26.582V27H46.1V26.582C46.2173 26.582 46.3273 26.56 46.43 26.516C46.5473 26.472 46.606 26.4133 46.606 26.34V11.16C46.606 11.0867 46.5473 11.028 46.43 10.984C46.3273 10.94 46.2247 10.918 46.122 10.918V10.5H51.798V10.918C51.622 10.918 51.5047 10.962 51.446 11.05C51.402 11.1233 51.402 11.2113 51.446 11.314L55.912 21.698L60.444 11.314C60.4733 11.226 60.4293 11.138 60.312 11.05C60.1947 10.962 60.048 10.918 59.872 10.918V10.5H65.658V10.918C65.5553 10.918 65.4453 10.94 65.328 10.984C65.2253 11.028 65.174 11.0867 65.174 11.16V26.34ZM70.0192 15.032C69.5498 15.032 69.1465 14.8707 68.8092 14.548C68.4865 14.2253 68.3252 13.822 68.3252 13.338C68.3252 12.8833 68.4865 12.4947 68.8092 12.172C69.1465 11.8347 69.5498 11.666 70.0192 11.666C70.4885 11.666 70.8845 11.8347 71.2072 12.172C71.5298 12.4947 71.6912 12.8833 71.6912 13.338C71.6912 13.822 71.5298 14.2253 71.2072 14.548C70.8845 14.8707 70.4885 15.032 70.0192 15.032ZM68.5892 17.54C68.5892 17.4667 68.5305 17.408 68.4132 17.364C68.3105 17.32 68.2078 17.298 68.1052 17.298V16.88H71.8892V17.298C71.7865 17.298 71.6765 17.32 71.5592 17.364C71.4565 17.408 71.4052 17.4667 71.4052 17.54V26.34C71.4052 26.4133 71.4565 26.472 71.5592 26.516C71.6765 26.56 71.7865 26.582 71.8892 26.582V27H68.1052V26.582C68.2078 26.582 68.3105 26.56 68.4132 26.516C68.5305 26.472 68.5892 26.4133 68.5892 26.34V17.54ZM85.133 26.34C85.133 26.4133 85.1843 26.472 85.287 26.516C85.4043 26.56 85.5217 26.582 85.639 26.582V27H81.767V26.582C81.8843 26.582 81.9943 26.56 82.097 26.516C82.2143 26.472 82.273 26.4133 82.273 26.34V21.764C82.273 21.016 82.0897 20.378 81.723 19.85C81.3563 19.3073 80.8063 19.036 80.073 19.036C79.325 19.036 78.7163 19.2853 78.247 19.784C77.7923 20.2827 77.565 21.0013 77.565 21.94V26.34C77.565 26.4133 77.6163 26.472 77.719 26.516C77.8363 26.56 77.9537 26.582 78.071 26.582V27H74.221V26.582C74.3383 26.582 74.4483 26.56 74.551 26.516C74.6683 26.472 74.727 26.4133 74.727 26.34V17.54C74.727 17.4667 74.6683 17.408 74.551 17.364C74.4483 17.32 74.3457 17.298 74.243 17.298V16.88H77.565V17.782C77.9463 17.43 78.3937 17.1587 78.907 16.968C79.435 16.7627 79.9703 16.66 80.513 16.66C81.4517 16.66 82.2657 16.858 82.955 17.254C83.659 17.65 84.1943 18.1853 84.561 18.86C84.9423 19.52 85.133 20.2607 85.133 21.082V26.34ZM89.8922 15.032C89.4229 15.032 89.0195 14.8707 88.6822 14.548C88.3595 14.2253 88.1982 13.822 88.1982 13.338C88.1982 12.8833 88.3595 12.4947 88.6822 12.172C89.0195 11.8347 89.4229 11.666 89.8922 11.666C90.3615 11.666 90.7575 11.8347 91.0802 12.172C91.4029 12.4947 91.5642 12.8833 91.5642 13.338C91.5642 13.822 91.4029 14.2253 91.0802 14.548C90.7575 14.8707 90.3615 15.032 89.8922 15.032ZM88.4622 17.54C88.4622 17.4667 88.4035 17.408 88.2862 17.364C88.1835 17.32 88.0809 17.298 87.9782 17.298V16.88H91.7622V17.298C91.6595 17.298 91.5495 17.32 91.4322 17.364C91.3295 17.408 91.2782 17.4667 91.2782 17.54V26.34C91.2782 26.4133 91.3295 26.472 91.4322 26.516C91.5495 26.56 91.6595 26.582 91.7622 26.582V27H87.9782V26.582C88.0809 26.582 88.1835 26.56 88.2862 26.516C88.4035 26.472 88.4622 26.4133 88.4622 26.34V17.54ZM110.44 26.34C110.44 26.4133 110.491 26.472 110.594 26.516C110.711 26.56 110.829 26.582 110.946 26.582V27H107.074V26.582C107.191 26.582 107.301 26.56 107.404 26.516C107.521 26.472 107.58 26.4133 107.58 26.34V21.764C107.58 19.9453 106.979 19.036 105.776 19.036C105.189 19.036 104.735 19.278 104.412 19.762C104.089 20.246 103.928 20.972 103.928 21.94V26.34C103.928 26.4133 103.979 26.472 104.082 26.516C104.199 26.56 104.317 26.582 104.434 26.582V27H100.584V26.582C100.701 26.582 100.811 26.56 100.914 26.516C101.031 26.472 101.09 26.4133 101.09 26.34V21.764C101.09 20.9573 100.965 20.3047 100.716 19.806C100.467 19.2927 100.005 19.036 99.33 19.036C98.802 19.036 98.3767 19.234 98.054 19.63C97.746 20.0113 97.5627 20.5907 97.504 21.368V26.34C97.504 26.4133 97.5627 26.472 97.68 26.516C97.7974 26.56 97.9074 26.582 98.01 26.582V27H94.094V26.582C94.1967 26.582 94.3067 26.56 94.424 26.516C94.5414 26.472 94.6 26.4133 94.6 26.34V17.54C94.6 17.4667 94.5414 17.408 94.424 17.364C94.3214 17.32 94.2187 17.298 94.116 17.298V16.88H97.504V17.474C98.0907 16.9313 98.8387 16.66 99.748 16.66C100.569 16.66 101.273 16.8213 101.86 17.144C102.461 17.452 102.931 17.8847 103.268 18.442C103.532 17.8993 103.935 17.4667 104.478 17.144C105.035 16.8213 105.659 16.66 106.348 16.66C107.727 16.66 108.753 17.0707 109.428 17.892C110.103 18.7133 110.44 19.7767 110.44 21.082V26.34ZM124.881 17.298C124.778 17.298 124.668 17.32 124.551 17.364C124.448 17.408 124.397 17.4667 124.397 17.54V26.34C124.397 26.4133 124.448 26.472 124.551 26.516C124.668 26.56 124.778 26.582 124.881 26.582V27H121.625V25.79C120.701 26.7873 119.535 27.286 118.127 27.286C117.056 27.286 116.11 27.0733 115.289 26.648C114.482 26.208 113.851 25.5847 113.397 24.778C112.957 23.9713 112.737 23.0327 112.737 21.962C112.737 20.9207 112.979 19.9967 113.463 19.19C113.961 18.3687 114.621 17.738 115.443 17.298C116.264 16.8433 117.159 16.616 118.127 16.616C119.535 16.616 120.701 17.1587 121.625 18.244V16.88H124.881V17.298ZM118.457 24.954C119.058 24.954 119.593 24.822 120.063 24.558C120.547 24.2793 120.921 23.92 121.185 23.48C121.449 23.0253 121.581 22.5413 121.581 22.028C121.581 21.148 121.287 20.422 120.701 19.85C120.129 19.278 119.381 18.992 118.457 18.992C117.562 18.992 116.821 19.2707 116.235 19.828C115.663 20.3853 115.377 21.0967 115.377 21.962C115.377 22.8713 115.67 23.5973 116.257 24.14C116.858 24.6827 117.591 24.954 118.457 24.954ZM133.677 16.22V19.762H133.259C133.259 19.6593 133.237 19.542 133.193 19.41C133.149 19.278 133.09 19.2047 133.017 19.19H132.863C132.408 19.19 131.946 19.322 131.477 19.586C131.022 19.8353 130.641 20.1727 130.333 20.598C130.039 21.0087 129.893 21.4487 129.893 21.918V26.34C129.893 26.4133 129.944 26.472 130.047 26.516C130.164 26.56 130.274 26.582 130.377 26.582V27H126.681V26.582C126.783 26.582 126.886 26.56 126.989 26.516C127.106 26.472 127.165 26.4133 127.165 26.34V17.54C127.165 17.4667 127.106 17.408 126.989 17.364C126.886 17.32 126.783 17.298 126.681 17.298V16.88H129.893V17.826C130.289 17.4593 130.765 17.166 131.323 16.946C131.88 16.726 132.437 16.616 132.995 16.616H133.017H133.039C133.112 16.616 133.163 16.572 133.193 16.484C133.237 16.396 133.259 16.308 133.259 16.22H133.677ZM140.918 16.44V19.784H140.5C140.5 19.6813 140.478 19.586 140.434 19.498C140.39 19.3953 140.331 19.344 140.258 19.344H138.828V26.34C138.828 26.4133 138.879 26.472 138.982 26.516C139.084 26.56 139.187 26.582 139.29 26.582V27H135.704V26.582C135.806 26.582 135.909 26.56 136.012 26.516C136.114 26.472 136.166 26.4133 136.166 26.34V19.344H135.11C135.036 19.344 134.978 19.3953 134.934 19.498C134.89 19.586 134.868 19.6813 134.868 19.784H134.45V16.44H134.868C134.868 16.5427 134.89 16.6453 134.934 16.748C134.978 16.836 135.036 16.88 135.11 16.88H136.166V14.306C136.166 14.2327 136.114 14.174 136.012 14.13C135.909 14.086 135.806 14.064 135.704 14.064V13.646H139.29V14.064C139.187 14.064 139.084 14.086 138.982 14.13C138.879 14.174 138.828 14.2327 138.828 14.306V16.88H140.258C140.331 16.88 140.39 16.836 140.434 16.748C140.478 16.6453 140.5 16.5427 140.5 16.44H140.918Z" fill="black"/>
<defs>
<linearGradient id="paint0_linear_1_16" x1="-4.80387" y1="25.1079" x2="5.50366" y2="16.9218" gradientUnits="userSpaceOnUse">
<stop stop-color="#D8B61C"/>
<stop offset="1" stop-color="#FFF65A"/>
</linearGradient>
<linearGradient id="paint1_linear_1_16" x1="3.96202" y1="2.51141" x2="16.1846" y2="14.3365" gradientUnits="userSpaceOnUse">
<stop stop-color="#A0CF20"/>
<stop offset="1" stop-color="#D3E645"/>
</linearGradient>
<linearGradient id="paint2_linear_1_16" x1="13.8827" y1="28.1351" x2="27.2173" y2="16.7117" gradientUnits="userSpaceOnUse">
<stop stop-color="#5EBA20"/>
<stop offset="1" stop-color="#AEE33C"/>
</linearGradient>
<linearGradient id="paint3_linear_1_16" x1="41.925" y1="7.82895" x2="41.1578" y2="34.2325" gradientUnits="userSpaceOnUse">
<stop stop-color="#2A9433"/>
<stop offset="1" stop-color="#59C942"/>
</linearGradient>
<linearGradient id="paint4_linear_1_16" x1="25.8" y1="12.1272" x2="42.0781" y2="8.90095" gradientUnits="userSpaceOnUse">
<stop stop-color="#3BB322"/>
<stop offset="1" stop-color="#78D43A"/>
</linearGradient>
<clipPath id="clip0_1_16">
<rect width="43" height="35" fill="white"/>
</clipPath>
</defs>
</svg>
